o Default
v -0.25 0 0.25
v -0.25 0.25 8.881784197001252e-16
v 0.25 0.25 8.881784197001252e-16
v 0.25 0 0.25
v -0.25 -0.25 8.881784197001252e-16
v 0.25 0 0.25
v -0.25 0 0.25
v 0.25 -0.25 8.881784197001252e-16
v 0.25 -0.25 8.881784197001252e-16
v -0.25 0 -0.25
v 0.25 0 -0.25
v -0.25 -0.25 8.881784197001252e-16
v 0.25 0 -0.25
v -0.25 0.25 8.881784197001252e-16
v 0.25 0.25 8.881784197001252e-16
v -0.25 0 -0.25
vt 0.75 0.9921875
vt 0.78125 1
vt 0.75 1
vt 0.75 0.9921875
vt 0.78125 0.9921875
vt 0.78125 1
vt 0.75 0.984375
vt 0.78125 0.9921875
vt 0.75 0.9921875
vt 0.75 0.984375
vt 0.78125 0.984375
vt 0.78125 0.9921875
vt 0.75 0.984375
vt 0.78125 0.9921875
vt 0.75 0.9921875
vt 0.75 0.984375
vt 0.78125 0.984375
vt 0.78125 0.9921875
vt 0.75 0.9921875
vt 0.78125 1
vt 0.75 1
vt 0.75 0.9921875
vt 0.78125 0.9921875
vt 0.78125 1
vn 0 0.7071067811865462 0.7071067811865488
vn 0 0.7071067811865462 0.7071067811865488
vn 0 0.7071067811865462 0.7071067811865488
vn 0 0.7071067811865462 0.7071067811865488
vn 0 0.7071067811865462 0.7071067811865488
vn 0 0.7071067811865462 0.7071067811865488
vn 0 -0.7071067811865462 0.7071067811865488
vn 0 -0.7071067811865462 0.7071067811865488
vn 0 -0.7071067811865462 0.7071067811865488
vn 0 -0.7071067811865462 0.7071067811865488
vn 0 -0.7071067811865462 0.7071067811865488
vn 0 -0.7071067811865462 0.7071067811865488
vn 0 -0.7071067811865488 -0.7071067811865462
vn 0 -0.7071067811865488 -0.7071067811865462
vn 0 -0.7071067811865488 -0.7071067811865462
vn 0 -0.7071067811865488 -0.7071067811865462
vn 0 -0.7071067811865488 -0.7071067811865462
vn 0 -0.7071067811865488 -0.7071067811865462
vn 0 0.7071067811865488 -0.7071067811865462
vn 0 0.7071067811865488 -0.7071067811865462
vn 0 0.7071067811865488 -0.7071067811865462
vn 0 0.7071067811865488 -0.7071067811865462
vn 0 0.7071067811865488 -0.7071067811865462
vn 0 0.7071067811865488 -0.7071067811865462
g Scene
usemtl material0
f 1/1/1 3/2/2 2/3/3
f 1/4/4 4/5/5 3/6/6
f 5/7/7 6/8/8 7/9/9
f 5/10/10 8/11/11 6/12/12
f 9/13/13 10/14/14 11/15/15
f 9/16/16 12/17/17 10/18/18
f 13/19/19 14/20/20 15/21/21
f 13/22/22 16/23/23 14/24/24
