o Default
v -0.25 0 0.25
v -0.25 0.25 1.3322676295501878e-15
v 0 0.25 0.25
v 0 0 0.25
v -0.25 -0.25 1.1102230246251565e-15
v 0 0 0.25
v -0.25 0 0.25
v 0 -0.25 1.1102230246251565e-15
v 0 -0.25 1.1102230246251565e-15
v 0.25 0 1.3322676295501878e-15
v 0 0 0.25
v 0 -0.25 1.1102230246251565e-15
v 0 0 0.25
v 0.25 0.25 1.3322676295501878e-15
v 0 0.25 0.25
v 0.25 0 1.3322676295501878e-15
v 0 -0.25 1.1102230246251565e-15
v -0.25 -0.25 1.1102230246251565e-15
v 0 0 -0.25
v -0.25 0 -0.25
v 0 0 -0.25
v -0.25 0.25 1.3322676295501878e-15
v 0 0.25 -0.25
v -0.25 0 -0.25
v 0 -0.25 1.1102230246251565e-15
v 0 -0.25 1.1102230246251565e-15
v 0.25 0 1.3322676295501878e-15
v 0 0 -0.25
v 0.25 0 1.3322676295501878e-15
v 0 0 -0.25
v 0.25 0.25 1.3322676295501878e-15
v 0 0.25 -0.25
vt 0.78125 0.9765625
vt 0.796875 0.9765625
vt 0.78125 0.984375
vt 0.796875 0.9765625
vt 0.796875 0.984375
vt 0.78125 0.984375
vt 0.78125 0.96875
vt 0.796875 0.9765625
vt 0.78125 0.9765625
vt 0.78125 0.96875
vt 0.796875 0.96875
vt 0.796875 0.9765625
vt 0.796875 0.96875
vt 0.8125 0.9765625
vt 0.796875 0.9765625
vt 0.796875 0.96875
vt 0.8125 0.96875
vt 0.8125 0.9765625
vt 0.796875 0.9765625
vt 0.8125 0.984375
vt 0.796875 0.984375
vt 0.796875 0.9765625
vt 0.8125 0.9765625
vt 0.8125 0.984375
vt 0.765625 0.96875
vt 0.78125 0.96875
vt 0.765625 0.9765625
vt 0.78125 0.96875
vt 0.78125 0.9765625
vt 0.765625 0.9765625
vt 0.765625 0.9765625
vt 0.78125 0.984375
vt 0.765625 0.984375
vt 0.765625 0.9765625
vt 0.78125 0.9765625
vt 0.78125 0.984375
vt 0.75 0.96875
vt 0.765625 0.96875
vt 0.75 0.9765625
vt 0.765625 0.96875
vt 0.765625 0.9765625
vt 0.75 0.9765625
vt 0.75 0.9765625
vt 0.765625 0.9765625
vt 0.75 0.984375
vt 0.765625 0.9765625
vt 0.765625 0.984375
vt 0.75 0.984375
vn 0 0.7071067811865456 0.7071067811865493
vn 0 0.7071067811865456 0.7071067811865493
vn 0 0.7071067811865456 0.7071067811865493
vn -0.7071067811865456 0 0.7071067811865493
vn -0.7071067811865456 0 0.7071067811865493
vn -0.7071067811865456 0 0.7071067811865493
vn 0 -0.707106781186546 0.7071067811865491
vn 0 -0.707106781186546 0.7071067811865491
vn 0 -0.707106781186546 0.7071067811865491
vn 0 -0.707106781186546 0.7071067811865491
vn 0 -0.707106781186546 0.7071067811865491
vn 0 -0.707106781186546 0.7071067811865491
vn 0.5773502691896245 -0.5773502691896251 0.5773502691896276
vn 0.5773502691896245 -0.5773502691896251 0.5773502691896276
vn 0.5773502691896245 -0.5773502691896251 0.5773502691896276
vn 0 0 0
vn 0 0 0
vn 0 0 0
vn 0.7071067811865456 0 0.7071067811865493
vn 0.7071067811865456 0 0.7071067811865493
vn 0.7071067811865456 0 0.7071067811865493
vn 0.7071067811865456 0 0.7071067811865493
vn 0.7071067811865456 0 0.7071067811865493
vn 0.7071067811865456 0 0.7071067811865493
vn 0 -0.707106781186549 -0.7071067811865459
vn 0 -0.707106781186549 -0.7071067811865459
vn 0 -0.707106781186549 -0.7071067811865459
vn 0 -0.707106781186549 -0.7071067811865459
vn 0 -0.707106781186549 -0.7071067811865459
vn 0 -0.707106781186549 -0.7071067811865459
vn -0.7071067811865493 0 -0.7071067811865456
vn -0.7071067811865493 0 -0.7071067811865456
vn -0.7071067811865493 0 -0.7071067811865456
vn 0 0.7071067811865493 -0.7071067811865456
vn 0 0.7071067811865493 -0.7071067811865456
vn 0 0.7071067811865493 -0.7071067811865456
vn 0 0 0
vn 0 0 0
vn 0 0 0
vn 0.577350269189627 -0.5773502691896264 -0.5773502691896238
vn 0.577350269189627 -0.5773502691896264 -0.5773502691896238
vn 0.577350269189627 -0.5773502691896264 -0.5773502691896238
vn 0.7071067811865493 0 -0.7071067811865456
vn 0.7071067811865493 0 -0.7071067811865456
vn 0.7071067811865493 0 -0.7071067811865456
vn 0.7071067811865493 0 -0.7071067811865456
vn 0.7071067811865493 0 -0.7071067811865456
vn 0.7071067811865493 0 -0.7071067811865456
g Scene
usemtl material0
f 1/1/1 4/2/2 2/3/3
f 4/4/4 3/5/5 2/6/6
f 5/7/7 6/8/8 7/9/9
f 5/10/10 8/11/11 6/12/12
f 9/13/13 10/14/14 11/15/15
f 9/16/16 12/17/17 10/18/18
f 13/19/19 14/20/20 15/21/21
f 13/22/22 16/23/23 14/24/24
f 17/25/25 18/26/26 19/27/27
f 18/28/28 20/29/29 19/30/30
f 21/31/31 22/32/32 23/33/33
f 21/34/34 24/35/35 22/36/36
f 25/37/37 26/38/38 27/39/39
f 26/40/40 28/41/41 27/42/42
f 29/43/43 30/44/44 31/45/45
f 30/46/46 32/47/47 31/48/48
