o Default
v -1.5 -0.5 -2
v -1.5 0.5 -2
v 1.5 0.5 -2
v 1.5 -0.5 -2
v 1.5 -0.5 -2
v 2 0.5 -1.5
v 1.5 0.5 -2
v 2 -0.5 -1.5
v -2 -0.5 -1.5
v -1.5 0.5 -2
v -2 0.5 -1.5
v -1.5 -0.5 -2
v -2 -0.5 1.5
v -2 0.5 -1.5
v -2 0.5 1.5
v -2 -0.5 -1.5
v 2 -0.5 -1.5
v 2 0.5 1.5
v 2 0.5 -1.5
v 2 -0.5 1.5
v 2 -0.5 1.5
v 1.5 0.5 2
v 2 0.5 1.5
v 1.5 -0.5 2
v -1.5 -0.5 2
v -2 0.5 1.5
v -1.5 0.5 2
v -2 -0.5 1.5
v 1.5 -0.5 2
v -1.5 0.5 2
v 1.5 0.5 2
v -1.5 -0.5 2
v 1.5 0.5 -2
v 2 0.5000044107437134 -1.9999500513076782
v 1.5 0.4999544322490692 -1.4999500513076782
v 2 0.5 -1.5
v 0.5 0.5000159740447998 -1.9999500513076782
v 1.5 0.5 -2
v 0.5 0.49996596574783325 -1.4999500513076782
v 1.5 0.4999544322490692 -1.4999500513076782
v -0.5 0.5000181198120117 -1.9999500513076782
v 0.5 0.5000159740447998 -1.9999500513076782
v -0.5 0.49996811151504517 -1.4999500513076782
v 0.5 0.49996596574783325 -1.4999500513076782
v -1.5 0.5 -2
v -0.5 0.5000181198120117 -1.9999500513076782
v -1.5 0.49996912479400635 -1.4999500513076782
v -0.5 0.49996811151504517 -1.4999500513076782
v -2 0.5000218152999878 -1.9999500513076782
v -1.5 0.5 -2
v -2 0.5 -1.5
v -1.5 0.49996912479400635 -1.4999500513076782
v -2 0.5 -1.5
v -1.5 0.49996912479400635 -1.4999500513076782
v -2 0.49989497661590576 -0.5000500082969666
v -1.5 0.49989497661590576 -0.5000500082969666
v -2 0.49989497661590576 -0.5000500082969666
v -1.5 0.49989497661590576 -0.5000500082969666
v -2 0.49984991550445557 0.49985000491142273
v -1.5 0.49984991550445557 0.49985000491142273
v -2 0.49984991550445557 0.49985000491142273
v -1.5 0.49984991550445557 0.49985000491142273
v -2 0.5 1.5
v -1.5 0.4997488856315613 1.499750018119812
v -2 0.5 1.5
v -1.5 0.4997488856315613 1.499750018119812
v -2 0.4996246099472046 1.9996999502182007
v -1.5 0.5 2
v -1.5 0.4997488856315613 1.499750018119812
v -0.5 0.49968573451042175 1.4996999502182007
v -1.5 0.5 2
v -0.5 0.4996357262134552 1.9996999502182007
v -0.5 0.49968573451042175 1.4996999502182007
v 0.5 0.4996858835220337 1.4996999502182007
v -0.5 0.4996357262134552 1.9996999502182007
v 0.5 0.49963587522506714 1.9996999502182007
v 0.5 0.4996858835220337 1.4996999502182007
v 1.5 0.4996846616268158 1.4996999502182007
v 0.5 0.49963587522506714 1.9996999502182007
v 1.5 0.5 2
v 1.5 0.4996846616268158 1.4996999502182007
v 2 0.5 1.5
v 1.5 0.5 2
v 2 0.4996350407600403 1.9996999502182007
v 1.5 0.49983465671539307 0.4997499883174896
v 2 0.49983465671539307 0.4997499883174896
v 1.5 0.4996846616268158 1.4996999502182007
v 2 0.5 1.5
v 1.5 0.4998517632484436 -0.5001500248908997
v 2 0.4998517632484436 -0.5001500248908997
v 1.5 0.49983465671539307 0.4997499883174896
v 2 0.49983465671539307 0.4997499883174896
v 1.5 0.4999544322490692 -1.4999500513076782
v 2 0.5 -1.5
v 1.5 0.4998517632484436 -0.5001500248908997
v 2 0.4998517632484436 -0.5001500248908997
v -1.5 0.49996912479400635 -1.4999500513076782
v 1.5 0.4999544322490692 -1.4999500513076782
v -1.5 0.4997488856315613 1.499750018119812
v 1.5 0.4996846616268158 1.4996999502182007
vt 0 0.65625
vt 0.1875 0.6875
vt 0 0.6875
vt 0 0.65625
vt 0.1875 0.65625
vt 0.1875 0.6875
vt 0.3125 0.71875
vt 0.34375 0.75
vt 0.3125 0.75
vt 0.3125 0.71875
vt 0.34375 0.71875
vt 0.34375 0.75
vt 0.3125 0.71875
vt 0.34375 0.75
vt 0.3125 0.75
vt 0.3125 0.71875
vt 0.34375 0.71875
vt 0.34375 0.75
vt 0 0.65625
vt 0.1875 0.6875
vt 0 0.6875
vt 0 0.65625
vt 0.1875 0.65625
vt 0.1875 0.6875
vt 0 0.65625
vt 0.1875 0.6875
vt 0 0.6875
vt 0 0.65625
vt 0.1875 0.65625
vt 0.1875 0.6875
vt 0.3125 0.71875
vt 0.34375 0.75
vt 0.3125 0.75
vt 0.3125 0.71875
vt 0.34375 0.71875
vt 0.34375 0.75
vt 0.3125 0.71875
vt 0.34375 0.75
vt 0.3125 0.75
vt 0.3125 0.71875
vt 0.34375 0.71875
vt 0.34375 0.75
vt 0 0.65625
vt 0.1875 0.6875
vt 0 0.6875
vt 0 0.65625
vt 0.1875 0.65625
vt 0.1875 0.6875
vt 0.5625 0.9375
vt 0.59375 0.9375
vt 0.5625 0.921875
vt 0.59375 0.9375
vt 0.59375 0.921875
vt 0.5625 0.921875
vt 0.4375 0.90625
vt 0.5 0.90625
vt 0.4375 0.890625
vt 0.5 0.90625
vt 0.5 0.890625
vt 0.4375 0.890625
vt 0.4375 0.90625
vt 0.5 0.90625
vt 0.4375 0.890625
vt 0.5 0.90625
vt 0.5 0.890625
vt 0.4375 0.890625
vt 0.4375 0.90625
vt 0.5 0.90625
vt 0.4375 0.890625
vt 0.5 0.90625
vt 0.5 0.890625
vt 0.4375 0.890625
vt 0.53125 0.9375
vt 0.5625 0.9375
vt 0.53125 0.921875
vt 0.5625 0.9375
vt 0.5625 0.921875
vt 0.53125 0.921875
vt 0.375 0.9375
vt 0.40625 0.9375
vt 0.375 0.90625
vt 0.40625 0.9375
vt 0.40625 0.90625
vt 0.375 0.90625
vt 0.375 0.9375
vt 0.40625 0.9375
vt 0.375 0.90625
vt 0.40625 0.9375
vt 0.40625 0.90625
vt 0.375 0.90625
vt 0.375 0.9375
vt 0.40625 0.9375
vt 0.375 0.90625
vt 0.40625 0.9375
vt 0.40625 0.90625
vt 0.375 0.90625
vt 0.5 0.90625
vt 0.53125 0.90625
vt 0.5 0.890625
vt 0.53125 0.90625
vt 0.53125 0.890625
vt 0.5 0.890625
vt 0.375 0.890625
vt 0.4375 0.890625
vt 0.375 0.875
vt 0.4375 0.890625
vt 0.4375 0.875
vt 0.375 0.875
vt 0.375 0.890625
vt 0.4375 0.890625
vt 0.375 0.875
vt 0.4375 0.890625
vt 0.4375 0.875
vt 0.375 0.875
vt 0.375 0.890625
vt 0.4375 0.890625
vt 0.375 0.875
vt 0.4375 0.890625
vt 0.4375 0.875
vt 0.375 0.875
vt 0.5625 0.890625
vt 0.59375 0.890625
vt 0.5625 0.875
vt 0.59375 0.890625
vt 0.59375 0.875
vt 0.5625 0.875
vt 0.46875 0.9375
vt 0.5 0.9375
vt 0.46875 0.90625
vt 0.5 0.9375
vt 0.5 0.90625
vt 0.46875 0.90625
vt 0.46875 0.9375
vt 0.5 0.9375
vt 0.46875 0.90625
vt 0.5 0.9375
vt 0.5 0.90625
vt 0.46875 0.90625
vt 0.46875 0.9375
vt 0.5 0.9375
vt 0.46875 0.90625
vt 0.5 0.9375
vt 0.5 0.90625
vt 0.46875 0.90625
vt 0.1875 1
vt 0.375 1
vt 0.1875 0.90625
vt 0.375 1
vt 0.375 0.90625
vt 0.1875 0.90625
vn 0 0 1
vn 0 0 1
vn 0 0 1
vn 0 0 1
vn 0 0 1
vn 0 0 1
vn -0.7071067811865475 0 0.7071067811865475
vn -0.7071067811865475 0 0.7071067811865475
vn -0.7071067811865475 0 0.7071067811865475
vn -0.7071067811865475 0 0.7071067811865475
vn -0.7071067811865475 0 0.7071067811865475
vn -0.7071067811865475 0 0.7071067811865475
vn 0.7071067811865475 0 0.7071067811865475
vn 0.7071067811865475 0 0.7071067811865475
vn 0.7071067811865475 0 0.7071067811865475
vn 0.7071067811865475 0 0.7071067811865475
vn 0.7071067811865475 0 0.7071067811865475
vn 0.7071067811865475 0 0.7071067811865475
vn 1 0 0
vn 1 0 0
vn 1 0 0
vn 1 0 0
vn 1 0 0
vn 1 0 0
vn -1 0 0
vn -1 0 0
vn -1 0 0
vn -1 0 0
vn -1 0 0
vn -1 0 0
vn -0.7071067811865475 0 -0.7071067811865475
vn -0.7071067811865475 0 -0.7071067811865475
vn -0.7071067811865475 0 -0.7071067811865475
vn -0.7071067811865475 0 -0.7071067811865475
vn -0.7071067811865475 0 -0.7071067811865475
vn -0.7071067811865475 0 -0.7071067811865475
vn 0.7071067811865475 0 -0.7071067811865475
vn 0.7071067811865475 0 -0.7071067811865475
vn 0.7071067811865475 0 -0.7071067811865475
vn 0.7071067811865475 0 -0.7071067811865475
vn 0.7071067811865475 0 -0.7071067811865475
vn 0.7071067811865475 0 -0.7071067811865475
vn 0 0 -1
vn 0 0 -1
vn 0 0 -1
vn 0 0 -1
vn 0 0 -1
vn 0 0 -1
vn 0.000008830590678638206 -0.9999999958090001 -0.00009112639819077214
vn 0.000008830590678638206 -0.9999999958090001 -0.00009112639819077214
vn 0.000008830590678638206 -0.9999999958090001 -0.00009112639819077214
vn 0.00009113462014800009 -0.9999999958083234 -0.000008822368721342614
vn 0.00009113462014800009 -0.9999999958083234 -0.000008822368721342614
vn 0.00009113462014800009 -0.9999999958083234 -0.000008822368721342614
vn -0.000015979040415920445 -0.9999999948706757 -0.00010001659342008793
vn -0.000015979040415920445 -0.9999999948706757 -0.00010001659342008793
vn -0.000015979040415920445 -0.9999999948706757 -0.00010001659342008793
vn -0.000011533498715383778 -0.9999999957814789 -0.00009112639818826423
vn -0.000011533498715383778 -0.9999999957814789 -0.00009112639818826423
vn -0.000011533498715383778 -0.9999999957814789 -0.00009112639818826423
vn -0.0000021457672011767256 -0.9999999949960383 -0.00010001659343262627
vn -0.0000021457672011767256 -0.9999999949960383 -0.00010001659343262627
vn -0.0000021457672011767256 -0.9999999949960383 -0.00010001659343262627
vn -0.0000021457672011767256 -0.9999999949960383 -0.00010001659343262627
vn -0.0000021457672011767256 -0.9999999949960383 -0.00010001659343262627
vn -0.0000021457672011767256 -0.9999999949960383 -0.00010001659343262627
vn 0.00001812289601843833 -0.9999999979296045 -0.00006174424377098739
vn 0.00001812289601843833 -0.9999999979296045 -0.00006174424377098739
vn 0.00001812289601843833 -0.9999999979296045 -0.00006174424377098739
vn -0.0000010132789561130442 -0.9999999949978271 -0.00010001659343280517
vn -0.0000010132789561130442 -0.9999999949978271 -0.00010001659343280517
vn -0.0000010132789561130442 -0.9999999949978271 -0.00010001659343280517
vn -0.00004363495891078707 -0.9999999980959903 -0.00004363495891078707
vn -0.00004363495891078707 -0.9999999980959903 -0.00004363495891078707
vn -0.00004363495891078707 -0.9999999980959903 -0.00004363495891078707
vn -0.00006174424366343163 -0.9999999961876483 -0.00006174424366343163
vn -0.00006174424366343163 -0.9999999961876483 -0.00006174424366343163
vn -0.00006174424366343163 -0.9999999961876483 -0.00006174424366343163
vn -0.00006173991944301828 -0.9999999925785842 -0.00010502863561801605
vn -0.00006173991944301828 -0.9999999925785842 -0.00010502863561801605
vn -0.00006173991944301828 -0.9999999925785842 -0.00010502863561801605
vn 0 -0.9999999972504742 -0.00007415559026625552
vn 0 -0.9999999972504742 -0.00007415559026625552
vn 0 -0.9999999972504742 -0.00007415559026625552
vn 0 -0.9999999989845452 -0.00004506561737093067
vn 0 -0.9999999989845452 -0.00004506561737093067
vn 0 -0.9999999989845452 -0.00004506561737093067
vn 0 -0.9999999989845452 -0.00004506561737093067
vn 0 -0.9999999989845452 -0.00004506561737093067
vn 0 -0.9999999989845452 -0.00004506561737093067
vn 0 -0.9999999887407002 0.00015006198529381103
vn 0 -0.9999999887407002 0.00015006198529381103
vn 0 -0.9999999887407002 0.00015006198529381103
vn -0.0005022791872810564 -0.9999998687532634 -0.00010103996229610045
vn -0.0005022791872810564 -0.9999998687532634 -0.00010103996229610045
vn -0.0005022791872810564 -0.9999998687532634 -0.00010103996229610045
vn -0.0005026041198091462 -0.9999995915207498 -0.000751230612075194
vn -0.0005026041198091462 -0.9999995915207498 -0.000751230612075194
vn -0.0005026041198091462 -0.9999995915207498 -0.000751230612075194
vn 0.000750478563057317 -0.9999995924001439 0.0005019775615797687
vn 0.000750478563057317 -0.9999995924001439 0.0005019775615797687
vn 0.000750478563057317 -0.9999995924001439 0.0005019775615797687
vn -0.00006312598008704818 -0.9999998720167406 0.0005019777019410833
vn -0.00006312598008704818 -0.9999998720167406 0.0005019777019410833
vn -0.00006312598008704818 -0.9999998720167406 0.0005019777019410833
vn -0.00036430377050516484 -0.9999999286397201 -0.00010001658679589333
vn -0.00036430377050516484 -0.9999999286397201 -0.00010001658679589333
vn -0.00036430377050516484 -0.9999999286397201 -0.00010001658679589333
vn 1.4901161119316957e-7 -0.9999999949983294 -0.00010001659343285541
vn 1.4901161119316957e-7 -0.9999999949983294 -0.00010001659343285541
vn 1.4901161119316957e-7 -0.9999999949983294 -0.00010001659343285541
vn 1.4901161119316957e-7 -0.9999999949983294 -0.00010001659343285541
vn 1.4901161119316957e-7 -0.9999999949983294 -0.00010001659343285541
vn 1.4901161119316957e-7 -0.9999999949983294 -0.00010001659343285541
vn -0.0000012218952117830917 -0.999999994997594 -0.00010001659343278185
vn -0.0000012218952117830917 -0.999999994997594 -0.00010001659343278185
vn -0.0000012218952117830917 -0.999999994997594 -0.00010001659343278185
vn 0.0003639355576111791 -0.9999997351374227 0.000630298337568428
vn 0.0003639355576111791 -0.9999997351374227 0.000630298337568428
vn 0.0003639355576111791 -0.9999997351374227 0.000630298337568428
vn 0.0006302982541084658 -0.999999602724032 0.0006302982541084658
vn 0.0006302982541084658 -0.999999602724032 0.0006302982541084658
vn 0.0006302982541084658 -0.999999602724032 0.0006302982541084658
vn -0.0007303563771090694 -0.9999994665794201 -0.0007303563771090694
vn -0.0007303563771090694 -0.9999994665794201 -0.0007303563771090694
vn -0.0007303563771090694 -0.9999994665794201 -0.0007303563771090694
vn 0 -0.9999999887496109 -0.00015000259273439625
vn 0 -0.9999999887496109 -0.00015000259273439625
vn 0 -0.9999999887496109 -0.00015000259273439625
vn 0.0006305774147532395 -0.9999997875236767 0.00016530192206374303
vn 0.0006305774147532395 -0.9999997875236767 0.00016530192206374303
vn 0.0006305774147532395 -0.9999997875236767 0.00016530192206374303
vn 0 -0.9999999998536538 -0.000017108243646425934
vn 0 -0.9999999998536538 -0.000017108243646425934
vn 0 -0.9999999998536538 -0.000017108243646425934
vn 0 -0.9999999998536538 -0.000017108243646425934
vn 0 -0.9999999998536538 -0.000017108243646425934
vn 0 -0.9999999998536538 -0.000017108243646425934
vn 0.00009112524258670598 -0.9999999905755247 -0.00010268953485225263
vn 0.00009112524258670598 -0.9999999905755247 -0.00010268953485225263
vn 0.00009112524258670598 -0.9999999905755247 -0.00010268953485225263
vn 0 -0.9999999890096355 -0.0001482589924663902
vn 0 -0.9999999890096355 -0.0001482589924663902
vn 0 -0.9999999890096355 -0.0001482589924663902
vn -0.000004897514965785701 -0.99999999729273 -0.00007342039428990492
vn -0.000004897514965785701 -0.99999999729273 -0.00007342039428990492
vn -0.000004897514965785701 -0.99999999729273 -0.00007342039428990492
vn -0.000021409502426445078 -0.9999999957267514 -0.0000899340326249371
vn -0.000021409502426445078 -0.9999999957267514 -0.0000899340326249371
vn -0.000021409502426445078 -0.9999999957267514 -0.0000899340326249371
g Scene
f 1/1/1 3/2/2 2/3/3
f 1/4/4 4/5/5 3/6/6
f 5/7/7 6/8/8 7/9/9
f 5/10/10 8/11/11 6/12/12
f 9/13/13 10/14/14 11/15/15
f 9/16/16 12/17/17 10/18/18
f 13/19/19 14/20/20 15/21/21
f 13/22/22 16/23/23 14/24/24
f 17/25/25 18/26/26 19/27/27
f 17/28/28 20/29/29 18/30/30
f 21/31/31 22/32/32 23/33/33
f 21/34/34 24/35/35 22/36/36
f 25/37/37 26/38/38 27/39/39
f 25/40/40 28/41/41 26/42/42
f 29/43/43 30/44/44 31/45/45
f 29/46/46 32/47/47 30/48/48
f 33/49/49 34/50/50 35/51/51
f 34/52/52 36/53/53 35/54/54
f 37/55/55 38/56/56 39/57/57
f 38/58/58 40/59/59 39/60/60
f 41/61/61 42/62/62 43/63/63
f 42/64/64 44/65/65 43/66/66
f 45/67/67 46/68/68 47/69/69
f 46/70/70 48/71/71 47/72/72
f 49/73/73 50/74/74 51/75/75
f 50/76/76 52/77/77 51/78/78
f 53/79/79 54/80/80 55/81/81
f 54/82/82 56/83/83 55/84/84
f 57/85/85 58/86/86 59/87/87
f 58/88/88 60/89/89 59/90/90
f 61/91/91 62/92/92 63/93/93
f 62/94/94 64/95/95 63/96/96
f 65/97/97 66/98/98 67/99/99
f 66/100/100 68/101/101 67/102/102
f 69/103/103 70/104/104 71/105/105
f 70/106/106 72/107/107 71/108/108
f 73/109/109 74/110/110 75/111/111
f 74/112/112 76/113/113 75/114/114
f 77/115/115 78/116/116 79/117/117
f 78/118/118 80/119/119 79/120/120
f 81/121/121 82/122/122 83/123/123
f 82/124/124 84/125/125 83/126/126
f 85/127/127 86/128/128 87/129/129
f 86/130/130 88/131/131 87/132/132
f 89/133/133 90/134/134 91/135/135
f 90/136/136 92/137/137 91/138/138
f 93/139/139 94/140/140 95/141/141
f 94/142/142 96/143/143 95/144/144
f 97/145/145 98/146/146 99/147/147
f 98/148/148 100/149/149 99/150/150
